<svg width="59" height="59" viewBox="0 0 59 59" fill="none" xmlns="http://www.w3.org/2000/svg">
<mask id="path-1-inside-1_153_7658" fill="white">
<path d="M49.0656 17.9939L36.7855 8.11727C32.5464 4.70961 26.3966 4.70961 22.1575 8.11727L9.87745 17.9939C7.11198 20.2174 5.52539 23.5267 5.52539 27.0744V41.796C5.52539 48.2231 10.7592 53.4538 17.1914 53.4538H23.9455V41.796C23.9455 38.7544 26.4236 36.2779 29.4715 36.2779C32.5194 36.2779 34.9975 38.7544 34.9975 41.796V53.4538H41.7516C48.1839 53.4538 53.4176 48.2256 53.4176 41.796V27.0744C53.4176 23.5267 51.831 20.2174 49.0656 17.9939ZM49.7336 41.796C49.7336 46.1913 46.1527 49.7685 41.7516 49.7685H38.6816V41.796C38.6816 36.7225 34.5505 32.5925 29.4715 32.5925C24.3925 32.5925 20.2615 36.7225 20.2615 41.796V49.7685H17.1914C12.7903 49.7685 9.20941 46.1913 9.20941 41.796V27.0744C9.20941 24.6495 10.2925 22.3868 12.1836 20.866L24.4637 10.9894C27.3667 8.6578 31.5763 8.6578 34.4768 10.9894L46.7569 20.866C48.648 22.3868 49.7311 24.6495 49.7311 27.0744V41.796H49.7336Z"/>
</mask>
<path d="M49.0656 17.9939L36.7855 8.11727C32.5464 4.70961 26.3966 4.70961 22.1575 8.11727L9.87745 17.9939C7.11198 20.2174 5.52539 23.5267 5.52539 27.0744V41.796C5.52539 48.2231 10.7592 53.4538 17.1914 53.4538H23.9455V41.796C23.9455 38.7544 26.4236 36.2779 29.4715 36.2779C32.5194 36.2779 34.9975 38.7544 34.9975 41.796V53.4538H41.7516C48.1839 53.4538 53.4176 48.2256 53.4176 41.796V27.0744C53.4176 23.5267 51.831 20.2174 49.0656 17.9939ZM49.7336 41.796C49.7336 46.1913 46.1527 49.7685 41.7516 49.7685H38.6816V41.796C38.6816 36.7225 34.5505 32.5925 29.4715 32.5925C24.3925 32.5925 20.2615 36.7225 20.2615 41.796V49.7685H17.1914C12.7903 49.7685 9.20941 46.1913 9.20941 41.796V27.0744C9.20941 24.6495 10.2925 22.3868 12.1836 20.866L24.4637 10.9894C27.3667 8.6578 31.5763 8.6578 34.4768 10.9894L46.7569 20.866C48.648 22.3868 49.7311 24.6495 49.7311 27.0744V41.796H49.7336Z" fill="#F78A79"/>
<path d="M49.0656 17.9939L24.4376 48.615L24.4426 48.6191L49.0656 17.9939ZM36.7855 8.11727L61.4135 -22.5038L61.4058 -22.51L36.7855 8.11727ZM22.1575 8.11727L-2.46284 -22.51L-2.47049 -22.5038L22.1575 8.11727ZM9.87745 17.9939L34.5004 48.6191L34.5055 48.615L9.87745 17.9939ZM23.9455 53.4538V92.7499H63.2417V53.4538H23.9455ZM34.9975 53.4538H-4.29866V92.7499H34.9975V53.4538ZM49.7336 41.796H89.0298V2.49976H49.7336V41.796ZM38.6816 49.7685H-0.614639V89.0647H38.6816V49.7685ZM20.2615 49.7685V89.0647H59.5577V49.7685H20.2615ZM12.1836 20.866L36.8096 51.4887L36.8116 51.4871L12.1836 20.866ZM24.4637 10.9894L-0.143322 -19.6486L-0.153819 -19.6402L-0.16431 -19.6317L24.4637 10.9894ZM34.4768 10.9894L59.1049 -19.6317L59.0965 -19.6384L34.4768 10.9894ZM46.7569 20.866L22.1289 51.4871L22.1309 51.4887L46.7569 20.866ZM49.7311 41.796H10.4349V81.0921H49.7311V41.796ZM73.6936 -12.6272L61.4135 -22.5038L12.1575 38.7384L24.4376 48.615L73.6936 -12.6272ZM61.4058 -22.51C42.7881 -37.4762 16.1549 -37.4762 -2.46283 -22.51L46.7779 38.7445C36.6383 46.8954 22.3047 46.8954 12.1652 38.7445L61.4058 -22.51ZM-2.47049 -22.5038L-14.7506 -12.6272L34.5055 48.615L46.7855 38.7384L-2.47049 -22.5038ZM-14.7455 -12.6313C-26.7812 -2.9545 -33.7708 11.6138 -33.7708 27.0744H44.8216C44.8216 35.4397 41.0051 43.3892 34.5004 48.6191L-14.7455 -12.6313ZM-33.7708 27.0744V41.796H44.8216V27.0744H-33.7708ZM-33.7708 41.796C-33.7708 69.9507 -10.9186 92.7499 17.1914 92.7499V14.1576C32.4369 14.1576 44.8216 26.4955 44.8216 41.796H-33.7708ZM17.1914 92.7499H23.9455V14.1576H17.1914V92.7499ZM63.2417 53.4538V41.796H-15.3507V53.4538H63.2417ZM63.2417 41.796C63.2417 60.5017 48.0816 75.5741 29.4715 75.5741V-3.01828C4.76563 -3.01828 -15.3507 17.007 -15.3507 41.796H63.2417ZM29.4715 75.5741C10.8615 75.5741 -4.29866 60.5017 -4.29866 41.796H74.2937C74.2937 17.007 54.1774 -3.01828 29.4715 -3.01828V75.5741ZM-4.29866 41.796V53.4538H74.2937V41.796H-4.29866ZM34.9975 92.7499H41.7516V14.1576H34.9975V92.7499ZM41.7516 92.7499C69.8562 92.7499 92.7138 69.9586 92.7138 41.796H14.1214C14.1214 26.4926 26.5115 14.1576 41.7516 14.1576V92.7499ZM92.7138 41.796V27.0744H14.1214V41.796H92.7138ZM92.7138 27.0744C92.7138 11.6138 85.7242 -2.9545 73.6885 -12.6313L24.4426 48.6191C17.9379 43.3892 14.1214 35.4397 14.1214 27.0744H92.7138ZM10.4374 41.796C10.4374 24.4462 24.4924 10.4723 41.7516 10.4723V89.0647C67.813 89.0647 89.0298 67.9363 89.0298 41.796H10.4374ZM41.7516 10.4723H38.6816V89.0647H41.7516V10.4723ZM77.9777 49.7685V41.796H-0.614639V49.7685H77.9777ZM77.9777 41.796C77.9777 14.999 56.2324 -6.70372 29.4715 -6.70372V71.8887C12.8687 71.8887 -0.614639 58.4461 -0.614639 41.796H77.9777ZM29.4715 -6.70372C2.71064 -6.70372 -19.0347 14.999 -19.0347 41.796H59.5577C59.5577 58.4461 46.0743 71.8887 29.4715 71.8887V-6.70372ZM-19.0347 41.796V49.7685H59.5577V41.796H-19.0347ZM20.2615 10.4723H17.1914V89.0647H20.2615V10.4723ZM17.1914 10.4723C34.4506 10.4723 48.5056 24.4462 48.5056 41.796H-30.0868C-30.0868 67.9363 -8.87003 89.0647 17.1914 89.0647V10.4723ZM48.5056 41.796V27.0744H-30.0868V41.796H48.5056ZM48.5056 27.0744C48.5056 36.5471 44.1978 45.5474 36.8096 51.4887L-12.4424 -9.75672C-23.6128 -0.773786 -30.0868 12.7519 -30.0868 27.0744H48.5056ZM36.8116 51.4871L49.0917 41.6105L-0.16431 -19.6317L-12.4444 -9.75511L36.8116 51.4871ZM49.0707 41.6273C37.6061 50.8352 21.3411 50.8483 9.85716 41.6172L59.0965 -19.6384C41.8115 -33.5327 17.1273 -33.5196 -0.143322 -19.6486L49.0707 41.6273ZM9.84884 41.6105L22.1289 51.4871L71.3849 -9.75511L59.1049 -19.6317L9.84884 41.6105ZM22.1309 51.4887C14.7428 45.5474 10.4349 36.5471 10.4349 27.0744H89.0273C89.0273 12.7519 82.5533 -0.773784 71.3829 -9.75673L22.1309 51.4887ZM10.4349 27.0744V41.796H89.0273V27.0744H10.4349ZM49.7311 81.0921H49.7336V2.49976H49.7311V81.0921Z" fill="#F78A79" mask="url(#path-1-inside-1_153_7658)"/>
</svg>
