<svg width="49" height="44" viewBox="0 0 49 44" fill="none" xmlns="http://www.w3.org/2000/svg">
<path d="M12.8055 17.5605C12.8055 16.5437 13.6307 15.7185 14.6475 15.7185H34.2956C35.3123 15.7185 36.1376 16.5437 36.1376 17.5605C36.1376 18.5773 35.3123 19.4025 34.2956 19.4025H14.6475C13.6307 19.4025 12.8055 18.5773 12.8055 17.5605ZM17.1035 12.0345H31.8395C32.8563 12.0345 33.6816 11.2093 33.6816 10.1925C33.6816 9.17568 32.8563 8.35046 31.8395 8.35046H17.1035C16.0867 8.35046 15.2615 9.17568 15.2615 10.1925C15.2615 11.2093 16.0867 12.0345 17.1035 12.0345ZM48.4176 26.1248V32.2966C48.4176 38.7289 43.1839 43.9626 36.7516 43.9626H12.1914C5.75915 43.9626 0.525391 38.7289 0.525391 32.2966V26.1248C0.525391 25.1325 0.685072 24.1525 0.996986 23.2118L5.74936 8.95966C7.3384 4.19009 11.7862 0.982422 16.8161 0.982422H32.1269C37.1568 0.982422 41.6022 4.18763 43.1937 8.95966L47.946 23.2118C48.2579 24.15 48.4176 25.1301 48.4176 26.1248ZM4.9216 23.0865H17.1035C18.1203 23.0865 18.9455 23.9118 18.9455 24.9285C18.9455 27.9765 21.4236 30.4546 24.4715 30.4546C27.5194 30.4546 29.9975 27.9765 29.9975 24.9285C29.9975 23.9118 30.8228 23.0865 31.8395 23.0865H44.0214L39.7012 10.1238C38.6132 6.85977 35.5702 4.66644 32.1293 4.66644H16.8185C13.3776 4.66644 10.3348 6.85977 9.24675 10.1238L4.9216 23.0865ZM44.7336 32.2966V26.7705H33.4973C32.6402 30.9679 28.9193 34.1386 24.4715 34.1386C20.0237 34.1386 16.3028 30.9679 15.4457 26.7705H4.20941V32.2966C4.20941 36.6977 7.79027 40.2786 12.1914 40.2786H36.7516C41.1527 40.2786 44.7336 36.6977 44.7336 32.2966Z" fill="#5C6A77"/>
</svg>
