<svg width="59" height="60" viewBox="0 0 59 60" fill="none" xmlns="http://www.w3.org/2000/svg">
<path d="M29.4715 39.5712C27.6499 39.5712 25.8693 39.031 24.3547 38.019C22.8401 37.007 21.6596 35.5686 20.9625 33.8857C20.2654 32.2028 20.0831 30.3509 20.4384 28.5644C20.7938 26.7778 21.671 25.1367 22.959 23.8487C24.2471 22.5606 25.8881 21.6835 27.6747 21.3281C29.4613 20.9727 31.3131 21.1551 32.996 21.8522C34.679 22.5493 36.1174 23.7297 37.1294 25.2443C38.1414 26.7589 38.6816 28.5396 38.6816 30.3612C38.679 32.803 37.7078 35.1441 35.9811 36.8708C34.2545 38.5974 31.9134 39.5686 29.4715 39.5712ZM29.4715 24.8351C28.3786 24.8351 27.3102 25.1592 26.4014 25.7664C25.4927 26.3736 24.7844 27.2367 24.3661 28.2464C23.9479 29.2562 23.8384 30.3673 24.0517 31.4392C24.2649 32.5112 24.7912 33.4958 25.564 34.2686C26.3368 35.0415 27.3215 35.5678 28.3934 35.781C29.4654 35.9942 30.5765 35.8848 31.5862 35.4665C32.596 35.0483 33.459 34.34 34.0662 33.4313C34.6734 32.5225 34.9975 31.4541 34.9975 30.3612C34.9962 28.896 34.4136 27.4911 33.3776 26.4551C32.3415 25.4191 30.9367 24.8364 29.4715 24.8351ZM30.6995 54.3073H28.2435C26.7783 54.306 25.3735 53.7233 24.3374 52.6873C23.3014 51.6512 22.7188 50.2464 22.7175 48.7812C22.7206 48.6041 22.6708 48.4301 22.5746 48.2814C22.4783 48.1326 22.34 48.016 22.1772 47.9462H22.1575C22.0092 47.8848 21.846 47.8688 21.6886 47.9003C21.5312 47.9318 21.3866 48.0093 21.2733 48.123C20.2291 49.1555 18.8226 49.7388 17.3542 49.7484C15.8858 49.7581 14.4718 49.1933 13.4141 48.1746L11.6949 46.4407C11.1802 45.9271 10.7719 45.3171 10.4932 44.6456C10.2146 43.974 10.0712 43.2541 10.0712 42.527C10.0712 41.7999 10.2146 41.08 10.4932 40.4085C10.7719 39.7369 11.1802 39.1269 11.6949 38.6134C11.8168 38.4882 11.8996 38.3303 11.9332 38.1589C11.9668 37.9875 11.9497 37.81 11.884 37.6481C11.824 37.4951 11.7198 37.3633 11.5846 37.2697C11.4495 37.1761 11.2895 37.1249 11.1251 37.1226C10.3933 37.1297 9.66738 36.9919 8.9891 36.7172C8.31083 36.4425 7.69363 36.0362 7.17309 35.5218C6.65256 35.0074 6.23897 34.3951 5.95618 33.7202C5.67339 33.0452 5.52698 32.321 5.52539 31.5892V29.1332C5.52669 27.668 6.10931 26.2631 7.14536 25.2271C8.18141 24.191 9.58622 23.6084 11.0514 23.6071C11.2283 23.6107 11.4023 23.5611 11.5507 23.4648C11.6991 23.3685 11.8152 23.2298 11.884 23.0668V23.0472C11.9448 22.8987 11.9604 22.7357 11.9289 22.5784C11.8975 22.4211 11.8203 22.2766 11.7072 22.163C11.184 21.6525 10.7673 21.0432 10.4812 20.3706C10.1951 19.6979 10.0453 18.9751 10.0405 18.2441C10.0357 17.5132 10.176 16.7885 10.4533 16.1121C10.7305 15.4357 11.1392 14.8211 11.6556 14.3037L13.3969 12.5624C14.4484 11.5552 15.8483 10.9929 17.3044 10.9929C18.7605 10.9929 20.1604 11.5552 21.2119 12.5624C21.336 12.6915 21.4958 12.7805 21.6709 12.8181C21.8459 12.8558 22.0282 12.8403 22.1943 12.7737C22.3467 12.7139 22.4777 12.6099 22.5705 12.4751C22.6632 12.3403 22.7136 12.1808 22.715 12.0172C22.7076 11.2856 22.8449 10.5598 23.1192 9.88159C23.3935 9.20335 23.7993 8.58608 24.3132 8.06535C24.827 7.54461 25.4389 7.13071 26.1134 6.84747C26.788 6.56424 27.5119 6.41727 28.2435 6.41504H30.6995C32.1647 6.41634 33.5695 6.99896 34.6056 8.03501C35.6416 9.07106 36.2242 10.4759 36.2255 11.9411C36.2168 12.1139 36.2616 12.2853 36.3539 12.4316C36.4463 12.578 36.5815 12.6923 36.7413 12.7589C36.8966 12.8251 37.0675 12.8457 37.2341 12.8183C37.4007 12.7909 37.556 12.7166 37.682 12.6042C38.195 12.0784 38.808 11.6606 39.485 11.3755C40.162 11.0903 40.8893 10.9436 41.6239 10.9439C42.3498 10.9419 43.069 11.0839 43.7398 11.3617C44.4105 11.6395 45.0194 12.0477 45.5314 12.5624L47.2653 14.2816C47.7785 14.7948 48.1855 15.404 48.4632 16.0744C48.7409 16.7449 48.8839 17.4635 48.8839 18.1892C48.8839 18.9149 48.7409 19.6334 48.4632 20.3039C48.1855 20.9743 47.7785 21.5835 47.2653 22.0967C47.135 22.2119 47.0435 22.3647 47.0035 22.534C46.9635 22.7033 46.9769 22.8808 47.0418 23.0422L47.0566 23.0766C47.1164 23.228 47.2202 23.3581 47.3545 23.45C47.4889 23.5419 47.6477 23.5915 47.8105 23.5924C48.5436 23.5843 49.2709 23.7216 49.9505 23.9963C50.6301 24.2711 51.2485 24.6778 51.7699 25.1931C52.2914 25.7083 52.7055 26.3218 52.9883 26.9981C53.2711 27.6744 53.417 28.4001 53.4176 29.1332V31.5892C53.4163 33.0544 52.8337 34.4592 51.7976 35.4952C50.7616 36.5313 49.3568 37.1139 47.8916 37.1152C47.7187 37.1064 47.5474 37.1513 47.401 37.2436C47.2546 37.3359 47.1403 37.4712 47.0737 37.631C47.0085 37.7864 46.9883 37.9572 47.0157 38.1236C47.0431 38.2899 47.1168 38.4452 47.2285 38.5716C47.751 39.0828 48.1669 39.6925 48.4522 40.3656C48.7374 41.0386 48.8863 41.7615 48.8902 42.4925C48.8941 43.2235 48.7529 43.948 48.4748 44.624C48.1967 45.3 47.7873 45.9142 47.2702 46.4308L45.551 48.1648C44.4995 49.172 43.0996 49.7343 41.6435 49.7343C40.1874 49.7343 38.7875 49.172 37.736 48.1648C37.6205 48.0348 37.4678 47.9435 37.2985 47.9035C37.1293 47.8635 36.9519 47.8767 36.7904 47.9413C36.6342 48.0024 36.499 48.1076 36.4014 48.2441C36.3037 48.3805 36.2477 48.5424 36.2403 48.71C36.2471 49.4422 36.1088 50.1685 35.8335 50.847C35.5582 51.5254 35.1512 52.1427 34.6361 52.663C34.1209 53.1834 33.5079 53.5966 32.8322 53.8788C32.1566 54.161 31.4317 54.3067 30.6995 54.3073ZM23.8006 44.6502C24.5687 45.0189 25.2189 45.5942 25.6783 46.3117C26.1378 47.0293 26.3882 47.8606 26.4015 48.7125C26.3946 48.9595 26.4371 49.2054 26.5264 49.4358C26.6156 49.6663 26.75 49.8766 26.9215 50.0545C27.093 50.2324 27.2982 50.3743 27.5252 50.472C27.7522 50.5696 27.9964 50.6211 28.2435 50.6233H30.6995C31.188 50.6233 31.6566 50.4292 32.002 50.0837C32.3475 49.7383 32.5415 49.2698 32.5415 48.7812C32.5403 47.8736 32.8079 46.986 33.3106 46.2302C33.8132 45.4745 34.5284 44.8846 35.3659 44.5348C36.1872 44.1944 37.0912 44.106 37.9629 44.2809C38.8346 44.4559 39.6345 44.8862 40.2608 45.5172C40.4301 45.6981 40.6339 45.8432 40.8603 45.944C41.0866 46.0448 41.3309 46.0992 41.5786 46.104C41.8263 46.1088 42.0725 46.0639 42.3026 45.972C42.5326 45.8801 42.742 45.743 42.9182 45.5688L44.6521 43.8496C44.9981 43.5033 45.1925 43.0337 45.1925 42.5442C45.1925 42.0547 44.9981 41.5852 44.6521 41.2388C44.0213 40.6038 43.5894 39.7985 43.4092 38.9217C43.2291 38.0449 43.3085 37.1346 43.6378 36.3022V36.2679L43.655 36.2261C43.9926 35.4029 44.5682 34.699 45.308 34.2046C46.0478 33.7103 46.9183 33.4478 47.8081 33.4508C48.0548 33.4574 48.3003 33.4146 48.5303 33.3252C48.7603 33.2357 48.9702 33.1013 49.1476 32.9298C49.3251 32.7583 49.4666 32.5532 49.5638 32.3263C49.661 32.0995 49.7121 31.8556 49.714 31.6088V29.1528C49.714 28.6643 49.5199 28.1957 49.1744 27.8503C48.829 27.5049 48.3605 27.3108 47.872 27.3108C46.9717 27.3219 46.0887 27.0637 45.3364 26.5691C44.5841 26.0746 43.9968 25.3664 43.6501 24.5355C43.2933 23.7038 43.195 22.784 43.368 21.8957C43.541 21.0074 43.9773 20.1917 44.6202 19.5547C44.8053 19.3805 44.9533 19.1705 45.055 18.9375C45.1567 18.7044 45.2102 18.4532 45.2121 18.199C45.2128 17.957 45.1654 17.7173 45.0727 17.4939C44.9799 17.2704 44.8436 17.0676 44.6718 16.8973L42.9526 15.1634C42.7812 14.9924 42.5778 14.8569 42.354 14.7646C42.1302 14.6723 41.8905 14.6251 41.6484 14.6255C41.4058 14.6243 41.1654 14.6718 40.9415 14.765C40.7175 14.8582 40.5144 14.9953 40.3443 15.1683C39.7085 15.798 38.9033 16.2292 38.0268 16.4093C37.1502 16.5894 36.2402 16.5106 35.4077 16.1826L35.3659 16.1752L35.3242 16.158C34.5009 15.8204 33.7971 15.2449 33.3027 14.505C32.8083 13.7652 32.5459 12.8947 32.5489 12.0049C32.5554 11.7582 32.5127 11.5127 32.4233 11.2827C32.3338 11.0527 32.1994 10.8428 32.0279 10.6654C31.8564 10.4879 31.6512 10.3465 31.4244 10.2492C31.1976 10.152 30.9537 10.1009 30.7069 10.0991H28.2509C27.7623 10.0991 27.2938 10.2931 26.9484 10.6386C26.6029 10.984 26.4089 11.4525 26.4089 11.9411C26.4195 12.8476 26.157 13.7364 25.6554 14.4916C25.1538 15.2468 24.4364 15.8335 23.5967 16.1752C22.7705 16.5141 21.8632 16.6034 20.9867 16.4323C20.1103 16.2613 19.3032 15.8372 18.6651 15.2125C18.4955 15.0329 18.2918 14.889 18.0659 14.789C17.8401 14.689 17.5966 14.6351 17.3496 14.6303C17.1027 14.6255 16.8573 14.6699 16.6277 14.761C16.3981 14.8521 16.189 14.9881 16.0126 15.1609L14.2712 16.9022C14.1001 17.0733 13.9643 17.2764 13.8716 17.4999C13.779 17.7235 13.7313 17.9631 13.7313 18.2051C13.7313 18.4471 13.779 18.6867 13.8716 18.9103C13.9643 19.1339 14.1001 19.337 14.2712 19.508C14.9185 20.1372 15.3623 20.946 15.5453 21.8299C15.7283 22.7138 15.6421 23.6323 15.2979 24.4667C15.2643 24.5508 15.2257 24.6328 15.1824 24.7123C14.8107 25.4763 14.234 26.122 13.5167 26.5774C12.7994 27.0327 11.9697 27.2798 11.1202 27.2911C10.8732 27.2843 10.6273 27.3267 10.3968 27.416C10.1664 27.5053 9.9561 27.6396 9.77819 27.8111C9.60028 27.9826 9.45835 28.1879 9.36069 28.4149C9.26303 28.6419 9.2116 28.886 9.20941 29.1332V31.5892C9.20941 32.0777 9.40348 32.5462 9.74892 32.8917C10.0944 33.2371 10.5629 33.4312 11.0514 33.4312C11.9527 33.4196 12.8367 33.6789 13.589 34.1755C14.3413 34.672 14.9272 35.383 15.2708 36.2163L15.2856 36.2482L15.2979 36.2826C15.6272 37.1086 15.7097 38.0124 15.5353 38.8843C15.3609 39.7563 14.9371 40.5589 14.3155 41.1946C14.1343 41.3664 13.9899 41.5732 13.8911 41.8024C13.7923 42.0317 13.7412 42.2786 13.7408 42.5282C13.7389 42.7709 13.7855 43.0114 13.8779 43.2358C13.9703 43.4602 14.1065 43.6638 14.2786 43.8348L16.0126 45.554C16.3635 45.8893 16.8301 46.0764 17.3155 46.0764C17.8008 46.0764 18.2675 45.8893 18.6184 45.554C19.2486 44.9083 20.0577 44.4661 20.9415 44.2844C21.8253 44.1027 22.7433 44.19 23.5771 44.5348C23.6536 44.5692 23.7282 44.6077 23.8006 44.6502Z" fill="#5C6A77"/>
</svg>
