<svg width="59" height="60" viewBox="0 0 59 60" fill="none" xmlns="http://www.w3.org/2000/svg">
<path d="M53.1701 24.7065C52.561 22.8153 50.9523 21.4648 48.9703 21.1799L38.7042 19.7111L34.1188 10.555C33.2371 8.79407 31.459 7.70117 29.472 7.70117C27.4851 7.70117 25.707 8.79407 24.8253 10.555L20.2399 19.7111L9.97378 21.1823C7.99178 21.4647 6.38311 22.8178 5.77402 24.7065C5.17229 26.5755 5.68067 28.5896 7.10516 29.9552L14.5174 37.0726L12.7687 47.1176C12.4322 49.0431 13.2084 50.9591 14.7925 52.1208C15.711 52.7937 16.7868 53.135 17.8723 53.135C18.6926 53.135 19.5178 52.9386 20.2816 52.5432L29.4696 47.7832L38.6575 52.5432C40.4357 53.4617 42.5381 53.2996 44.1492 52.1208C45.7333 50.9591 46.5094 49.0431 46.1729 47.1176L44.4243 37.0726L51.8365 29.9552C53.2634 28.5872 53.7718 26.5755 53.1701 24.7065ZM49.2871 27.2977L41.1676 35.0957C40.7255 35.5205 40.5241 36.1369 40.6297 36.7386L42.5454 47.7514C42.6829 48.5348 42.1893 48.9891 41.9731 49.1488C41.7914 49.2789 41.1406 49.6794 40.3546 49.2717L30.3194 44.0722C29.7864 43.7971 29.1552 43.7971 28.6247 44.0722L18.5895 49.2717C17.806 49.6818 17.1527 49.2814 16.971 49.1488C16.7548 48.9891 16.2612 48.5349 16.3987 47.749L18.3144 36.7386C18.42 36.1344 18.2162 35.5181 17.7765 35.0957L9.65696 27.2977C9.07243 26.7353 9.19764 26.087 9.28115 25.834C9.36711 25.5713 9.65445 24.9473 10.4969 24.827L21.716 23.2206C22.3128 23.1347 22.831 22.7614 23.1012 22.2211L28.1188 12.2031C28.4897 11.4613 29.1896 11.3828 29.472 11.3828C29.7545 11.3828 30.452 11.4613 30.8253 12.2031L35.8429 22.2211C36.1131 22.7614 36.6313 23.1347 37.2281 23.2206L48.4472 24.8246C49.2896 24.9449 49.577 25.5686 49.6629 25.8314C49.744 26.0868 49.8717 26.7353 49.2871 27.2977Z" fill="#5C6A77"/>
</svg>
